<svg width="544" height="119" viewBox="0 0 544 119" fill="none" xmlns="http://www.w3.org/2000/svg">
<path d="M542.375 117.847V108.5H491.969H440.563V117.847H491.969H542.375Z" fill="#3FBACF"/>
<path d="M543.375 95.5H298.375L173.375 1.5H0.375M542.375 108.5V117.847H491.969H440.563V108.5H491.969H542.375Z" stroke="#3FBACF" stroke-width="2"/>
<rect x="0.25" y="-0.25" width="5.17327" height="9.84653" transform="matrix(-1 0 0 1 434.875 108.5)" fill="#3FBACF" stroke="#3FBACF" stroke-width="0.5"/>
<rect x="0.25" y="-0.25" width="5.17327" height="9.84653" transform="matrix(-1 0 0 1 425.529 108.5)" fill="#3FBACF" stroke="#3FBACF" stroke-width="0.5"/>
<rect x="0.25" y="-0.25" width="4.00495" height="9.84653" transform="matrix(-1 0 0 1 416.182 108.5)" fill="#3FBACF" stroke="#3FBACF" stroke-width="0.5"/>
<rect x="0.25" y="-0.25" width="2.83663" height="9.84653" transform="matrix(-1 0 0 1 408.004 108.5)" fill="#3FBACF" stroke="#3FBACF" stroke-width="0.5"/>
<rect x="0.25" y="-0.25" width="2.83663" height="9.84653" transform="matrix(-1 0 0 1 400.994 108.5)" fill="#3FBACF" stroke="#3FBACF" stroke-width="0.5"/>
<rect x="0.25" y="-0.25" width="2.83663" height="9.84653" transform="matrix(-1 0 0 1 393.984 108.5)" fill="#3FBACF" stroke="#3FBACF" stroke-width="0.5"/>
<rect x="0.25" y="-0.25" width="2.83663" height="9.84653" transform="matrix(-1 0 0 1 386.975 108.5)" fill="#3FBACF" stroke="#3FBACF" stroke-width="0.5"/>
<rect x="0.25" y="-0.25" width="1.66832" height="9.84653" transform="matrix(-1 0 0 1 379.965 108.5)" fill="#3FBACF" stroke="#3FBACF" stroke-width="0.5"/>
<rect x="0.25" y="-0.25" width="1.66832" height="9.84653" transform="matrix(-1 0 0 1 374.123 108.5)" fill="#3FBACF" stroke="#3FBACF" stroke-width="0.5"/>
<rect x="0.25" y="-0.25" width="1.66832" height="9.84653" transform="matrix(-1 0 0 1 368.281 108.5)" fill="#3FBACF" stroke="#3FBACF" stroke-width="0.5"/>
</svg>
