<svg width="452" height="47" viewBox="0 0 452 47" fill="none" xmlns="http://www.w3.org/2000/svg">
<path d="M450.5 19.6931V10.3465H347.688V19.6931H450.5Z" fill="#3FBACF"/>
<path d="M450.5 1H176.5L123.5 45.396H0M450.5 10.3465V19.6931H347.688V10.3465H450.5Z" stroke="#3FBACF" stroke-width="2"/>
<rect x="0.25" y="-0.25" width="5.17327" height="9.84653" transform="matrix(-1 0 0 1 371.178 10.3467)" fill="#3FBACF" stroke="#3FBACF" stroke-width="0.5"/>
<rect x="0.25" y="-0.25" width="5.17327" height="9.84653" transform="matrix(-1 0 0 1 361.832 10.3467)" fill="#3FBACF" stroke="#3FBACF" stroke-width="0.5"/>
<rect x="0.25" y="-0.25" width="4.00495" height="9.84653" transform="matrix(-1 0 0 1 352.484 10.3467)" fill="#3FBACF" stroke="#3FBACF" stroke-width="0.5"/>
<rect x="0.25" y="-0.25" width="2.83663" height="9.84653" transform="matrix(-1 0 0 1 344.307 10.3467)" fill="#3FBACF" stroke="#3FBACF" stroke-width="0.5"/>
<rect x="0.25" y="-0.25" width="2.83663" height="9.84653" transform="matrix(-1 0 0 1 337.297 10.3467)" fill="#3FBACF" stroke="#3FBACF" stroke-width="0.5"/>
<rect x="0.25" y="-0.25" width="2.83663" height="9.84653" transform="matrix(-1 0 0 1 330.287 10.3467)" fill="#3FBACF" stroke="#3FBACF" stroke-width="0.5"/>
<rect x="0.25" y="-0.25" width="2.83663" height="9.84653" transform="matrix(-1 0 0 1 323.277 10.3467)" fill="#3FBACF" stroke="#3FBACF" stroke-width="0.5"/>
<rect x="0.25" y="-0.25" width="1.66832" height="9.84653" transform="matrix(-1 0 0 1 316.268 10.3467)" fill="#3FBACF" stroke="#3FBACF" stroke-width="0.5"/>
<rect x="0.25" y="-0.25" width="1.66832" height="9.84653" transform="matrix(-1 0 0 1 310.426 10.3467)" fill="#3FBACF" stroke="#3FBACF" stroke-width="0.5"/>
<rect x="0.25" y="-0.25" width="1.66832" height="9.84653" transform="matrix(-1 0 0 1 304.584 10.3467)" fill="#3FBACF" stroke="#3FBACF" stroke-width="0.5"/>
</svg>
