<svg width="491" height="66" viewBox="0 0 491 66" fill="none" xmlns="http://www.w3.org/2000/svg">
<path d="M102.812 19.6931H1V15V10.3465H102.812V19.6931Z" fill="#3FBACF"/>
<path d="M0 1H274L318.5 64.5H491M1 10.3465H102.812V19.6931H1V15V10.3465Z" stroke="#3FBACF" stroke-width="2"/>
<rect x="107.572" y="10.0967" width="5.17327" height="9.84653" fill="#3FBACF" stroke="#3FBACF" stroke-width="0.5"/>
<rect x="116.919" y="10.0967" width="5.17327" height="9.84653" fill="#3FBACF" stroke="#3FBACF" stroke-width="0.5"/>
<rect x="126.265" y="10.0967" width="4.00495" height="9.84653" fill="#3FBACF" stroke="#3FBACF" stroke-width="0.5"/>
<rect x="134.444" y="10.0967" width="2.83663" height="9.84653" fill="#3FBACF" stroke="#3FBACF" stroke-width="0.5"/>
<rect x="141.453" y="10.0967" width="2.83663" height="9.84653" fill="#3FBACF" stroke="#3FBACF" stroke-width="0.5"/>
<rect x="148.463" y="10.0967" width="2.83663" height="9.84653" fill="#3FBACF" stroke="#3FBACF" stroke-width="0.5"/>
<rect x="155.473" y="10.0967" width="2.83663" height="9.84653" fill="#3FBACF" stroke="#3FBACF" stroke-width="0.5"/>
<rect x="162.483" y="10.0967" width="1.66832" height="9.84653" fill="#3FBACF" stroke="#3FBACF" stroke-width="0.5"/>
<rect x="168.325" y="10.0967" width="1.66832" height="9.84653" fill="#3FBACF" stroke="#3FBACF" stroke-width="0.5"/>
<rect x="174.166" y="10.0967" width="1.66832" height="9.84653" fill="#3FBACF" stroke="#3FBACF" stroke-width="0.5"/>
</svg>
