<svg width="490" height="103" viewBox="0 0 490 103" fill="none" xmlns="http://www.w3.org/2000/svg">
<path d="M488.5 19.6931V10.3465H385.688V19.6931H488.5Z" fill="#3FBACF"/>
<path d="M488.5 1H228L123.5 102H0M488.5 10.3465V19.6931H385.688V10.3465H488.5Z" stroke="#3FBACF" stroke-width="2"/>
<rect x="0.25" y="-0.25" width="5.17327" height="9.84653" transform="matrix(-1 0 0 1 379.178 10.3467)" fill="#3FBACF" stroke="#3FBACF" stroke-width="0.5"/>
<rect x="0.25" y="-0.25" width="5.17327" height="9.84653" transform="matrix(-1 0 0 1 369.832 10.3467)" fill="#3FBACF" stroke="#3FBACF" stroke-width="0.5"/>
<rect x="0.25" y="-0.25" width="4.00495" height="9.84653" transform="matrix(-1 0 0 1 360.484 10.3467)" fill="#3FBACF" stroke="#3FBACF" stroke-width="0.5"/>
<rect x="0.25" y="-0.25" width="2.83663" height="9.84653" transform="matrix(-1 0 0 1 352.307 10.3467)" fill="#3FBACF" stroke="#3FBACF" stroke-width="0.5"/>
<rect x="0.25" y="-0.25" width="2.83663" height="9.84653" transform="matrix(-1 0 0 1 345.297 10.3467)" fill="#3FBACF" stroke="#3FBACF" stroke-width="0.5"/>
<rect x="0.25" y="-0.25" width="2.83663" height="9.84653" transform="matrix(-1 0 0 1 338.287 10.3467)" fill="#3FBACF" stroke="#3FBACF" stroke-width="0.5"/>
<rect x="0.25" y="-0.25" width="2.83663" height="9.84653" transform="matrix(-1 0 0 1 331.277 10.3467)" fill="#3FBACF" stroke="#3FBACF" stroke-width="0.5"/>
<rect x="0.25" y="-0.25" width="1.66832" height="9.84653" transform="matrix(-1 0 0 1 324.268 10.3467)" fill="#3FBACF" stroke="#3FBACF" stroke-width="0.5"/>
<rect x="0.25" y="-0.25" width="1.66832" height="9.84653" transform="matrix(-1 0 0 1 318.426 10.3467)" fill="#3FBACF" stroke="#3FBACF" stroke-width="0.5"/>
<rect x="0.25" y="-0.25" width="1.66832" height="9.84653" transform="matrix(-1 0 0 1 312.584 10.3467)" fill="#3FBACF" stroke="#3FBACF" stroke-width="0.5"/>
</svg>
