<svg width="516" height="73" viewBox="0 0 516 73" fill="none" xmlns="http://www.w3.org/2000/svg">
<path d="M1 71.6931V62.3465H102.812V71.6931H1Z" fill="#3FBACF"/>
<path d="M0 53H333.5L380 1.5H515.5M1 62.3465V71.6931H102.812V62.3465H1Z" stroke="#3FBACF" stroke-width="2"/>
<rect x="109.75" y="61.75" width="5.17327" height="9.84653" fill="#3FBACF" stroke="#3FBACF" stroke-width="0.5"/>
<rect x="119.096" y="61.75" width="5.17327" height="9.84653" fill="#3FBACF" stroke="#3FBACF" stroke-width="0.5"/>
<rect x="128.442" y="61.75" width="4.00495" height="9.84653" fill="#3FBACF" stroke="#3FBACF" stroke-width="0.5"/>
<rect x="136.621" y="61.75" width="2.83663" height="9.84653" fill="#3FBACF" stroke="#3FBACF" stroke-width="0.5"/>
<rect x="143.631" y="61.75" width="2.83663" height="9.84653" fill="#3FBACF" stroke="#3FBACF" stroke-width="0.5"/>
<rect x="150.641" y="61.75" width="2.83663" height="9.84653" fill="#3FBACF" stroke="#3FBACF" stroke-width="0.5"/>
<rect x="157.65" y="61.75" width="2.83663" height="9.84653" fill="#3FBACF" stroke="#3FBACF" stroke-width="0.5"/>
<rect x="164.66" y="61.75" width="1.66832" height="9.84653" fill="#3FBACF" stroke="#3FBACF" stroke-width="0.5"/>
<rect x="170.502" y="61.75" width="1.66832" height="9.84653" fill="#3FBACF" stroke="#3FBACF" stroke-width="0.5"/>
<rect x="176.344" y="61.75" width="1.66832" height="9.84653" fill="#3FBACF" stroke="#3FBACF" stroke-width="0.5"/>
</svg>
