<svg width="543" height="119" viewBox="0 0 543 119" fill="none" xmlns="http://www.w3.org/2000/svg">
<path d="M1 117.847V108.5H51.4059H102.812V117.847H51.4059H1Z" fill="#3FBACF"/>
<path d="M0 95.5H245L370 1.5H543M1 108.5V117.847H51.4059H102.812V108.5H51.4059H1Z" stroke="#3FBACF" stroke-width="2"/>
<rect x="108.75" y="108.25" width="5.17327" height="9.84653" fill="#3FBACF" stroke="#3FBACF" stroke-width="0.5"/>
<rect x="118.096" y="108.25" width="5.17327" height="9.84653" fill="#3FBACF" stroke="#3FBACF" stroke-width="0.5"/>
<rect x="127.443" y="108.25" width="4.00495" height="9.84653" fill="#3FBACF" stroke="#3FBACF" stroke-width="0.5"/>
<rect x="135.621" y="108.25" width="2.83663" height="9.84653" fill="#3FBACF" stroke="#3FBACF" stroke-width="0.5"/>
<rect x="142.631" y="108.25" width="2.83663" height="9.84653" fill="#3FBACF" stroke="#3FBACF" stroke-width="0.5"/>
<rect x="149.641" y="108.25" width="2.83663" height="9.84653" fill="#3FBACF" stroke="#3FBACF" stroke-width="0.5"/>
<rect x="156.65" y="108.25" width="2.83663" height="9.84653" fill="#3FBACF" stroke="#3FBACF" stroke-width="0.5"/>
<rect x="163.66" y="108.25" width="1.66832" height="9.84653" fill="#3FBACF" stroke="#3FBACF" stroke-width="0.5"/>
<rect x="169.502" y="108.25" width="1.66832" height="9.84653" fill="#3FBACF" stroke="#3FBACF" stroke-width="0.5"/>
<rect x="175.344" y="108.25" width="1.66832" height="9.84653" fill="#3FBACF" stroke="#3FBACF" stroke-width="0.5"/>
</svg>
