<svg width="527" height="107" viewBox="0 0 527 107" fill="none" xmlns="http://www.w3.org/2000/svg">
<path d="M1 19.6931V10.3465H103.812V19.6931H1Z" fill="#3FBACF"/>
<path d="M1 1H268L372.5 106H526.5M1 10.3465V19.6931H103.812V10.3465H1Z" stroke="#3FBACF" stroke-width="2"/>
<rect x="110.572" y="10.0965" width="5.17327" height="9.84653" fill="#3FBACF" stroke="#3FBACF" stroke-width="0.5"/>
<rect x="119.918" y="10.0965" width="5.17327" height="9.84653" fill="#3FBACF" stroke="#3FBACF" stroke-width="0.5"/>
<rect x="129.265" y="10.0965" width="4.00495" height="9.84653" fill="#3FBACF" stroke="#3FBACF" stroke-width="0.5"/>
<rect x="137.443" y="10.0965" width="2.83663" height="9.84653" fill="#3FBACF" stroke="#3FBACF" stroke-width="0.5"/>
<rect x="144.453" y="10.0965" width="2.83663" height="9.84653" fill="#3FBACF" stroke="#3FBACF" stroke-width="0.5"/>
<rect x="151.463" y="10.0965" width="2.83663" height="9.84653" fill="#3FBACF" stroke="#3FBACF" stroke-width="0.5"/>
<rect x="158.473" y="10.0965" width="2.83663" height="9.84653" fill="#3FBACF" stroke="#3FBACF" stroke-width="0.5"/>
<rect x="165.483" y="10.0965" width="1.66832" height="9.84653" fill="#3FBACF" stroke="#3FBACF" stroke-width="0.5"/>
<rect x="171.324" y="10.0965" width="1.66832" height="9.84653" fill="#3FBACF" stroke="#3FBACF" stroke-width="0.5"/>
<rect x="177.166" y="10.0965" width="1.66832" height="9.84653" fill="#3FBACF" stroke="#3FBACF" stroke-width="0.5"/>
</svg>
