<svg width="256" height="103" viewBox="0 0 256 103" fill="none" xmlns="http://www.w3.org/2000/svg">
<g opacity="0.8">
<g opacity="0.5" filter="url(#filter0_d_1880_3147)">
<path d="M247.365 94.9919H157.729H100.764H8.61414V88.9508V21.8945V12.2288H102.439H132.597H160.242L167.782 8H236.475L247.365 12.2288V88.9508V94.9919Z" fill="#3E6567"/>
</g>
<path d="M247.365 12.2288H175.321M247.365 12.2288L236.475 8H167.782L160.242 12.2288M247.365 12.2288V88.9508M8.61414 21.8945V12.2288H102.439M8.61414 21.8945H83.1715L102.439 12.2288M8.61414 21.8945V88.9508M102.439 12.2288H132.597M132.597 12.2288L137.623 17.0617H167.782L175.321 12.2288M132.597 12.2288H160.242M175.321 12.2288H160.242M247.365 88.9508V94.9919H8.61414V88.9508M247.365 88.9508H166.944L157.729 94.9919H100.764L97.4128 91.3672H44.6362L41.2853 88.9508H8.61414" stroke="#9AF0F4" stroke-width="0.8"/>
<path d="M40.9374 89.2234H8.61414V94.992H100.074L97.4128 91.9714H44.2431L40.9374 89.2234Z" fill="#9AF0F4" stroke="#9AF0F4" stroke-width="0.8"/>
<path d="M166.558 89.2234L158.844 94.992H246.631V89.2234H166.558Z" fill="#9AF0F4" stroke="#9AF0F4" stroke-width="0.8"/>
<path d="M173.902 12.8331H134.272L137.906 16.4578H167.781L173.902 12.8331Z" fill="#9AF0F4" stroke="#9AF0F4" stroke-width="0.8"/>
<path d="M167.78 8.6044L162.754 11.625H245.16L236.345 8.6044H167.78Z" fill="#9AF0F4" stroke="#9AF0F4" stroke-width="0.8"/>
<path d="M244.853 82.91V87.1387H228.098H223.91H222.234L228.098 82.91H244.853Z" fill="#9AF0F4"/>
<path d="M223.91 87.1387H228.098M228.098 87.1387H244.853V82.91H228.098L222.234 87.1387H228.098Z" stroke="#9AF0F4" stroke-width="0.8"/>
<path d="M218.884 87.1387L224.748 82.91H222.234L216.37 87.1387H218.884Z" fill="#9AF0F4" stroke="#9AF0F4" stroke-width="0.8"/>
<path d="M213.02 87.1387L218.884 82.91H216.371L210.506 87.1387H213.02Z" fill="#9AF0F4" stroke="#9AF0F4" stroke-width="0.8"/>
<path d="M207.154 87.1387L213.018 82.91H210.505L204.641 87.1387H207.154Z" fill="#9AF0F4" stroke="#9AF0F4" stroke-width="0.8"/>
<path d="M201.29 87.1387L207.154 82.91H204.641L198.777 87.1387H201.29Z" fill="#9AF0F4" stroke="#9AF0F4" stroke-width="0.8"/>
<path d="M195.426 87.1387L201.29 82.91H198.777L192.913 87.1387H195.426Z" fill="#9AF0F4" stroke="#9AF0F4" stroke-width="0.8"/>
<path d="M189.562 87.1387L195.426 82.91H192.913L187.049 87.1387H189.562Z" fill="#9AF0F4" stroke="#9AF0F4" stroke-width="0.8"/>
<path d="M183.698 87.1387L189.562 82.91H187.049L181.185 87.1387H183.698Z" fill="#9AF0F4" stroke="#9AF0F4" stroke-width="0.8"/>
<path d="M177.834 87.1387L183.698 82.91H181.185L175.321 87.1387H177.834Z" fill="#9AF0F4" stroke="#9AF0F4" stroke-width="0.8"/>
<path d="M171.97 87.1387L177.834 82.91H175.321L169.457 87.1387H171.97Z" fill="#9AF0F4" stroke="#9AF0F4" stroke-width="0.8"/>
<rect x="11.9641" y="14.6451" width="3.35089" height="4.83288" fill="#9AF0F4"/>
<rect x="16.9906" y="14.6451" width="3.35089" height="4.83288" fill="#9AF0F4"/>
<rect x="22.0186" y="14.6451" width="3.35089" height="4.83288" fill="#9AF0F4"/>
<rect x="27.0452" y="14.6451" width="3.35089" height="4.83288" fill="#9AF0F4"/>
<rect x="32.0701" y="14.6451" width="3.35089" height="4.83288" fill="#9AF0F4"/>
<rect x="37.0966" y="14.6451" width="3.35089" height="4.83288" fill="#9AF0F4"/>
<rect x="42.123" y="14.6451" width="3.35089" height="4.83288" fill="#9AF0F4"/>
<rect x="47.1495" y="14.6451" width="3.35089" height="4.83288" fill="#9AF0F4"/>
<rect x="52.176" y="14.6451" width="3.35089" height="4.83288" fill="#9AF0F4"/>
<rect x="57.2024" y="14.6451" width="3.35089" height="4.83288" fill="#9AF0F4"/>
<rect x="62.2274" y="14.6451" width="3.35089" height="4.83288" fill="#9AF0F4"/>
<rect x="67.2539" y="14.6451" width="3.35089" height="4.83288" fill="#9AF0F4"/>
<rect x="72.282" y="14.6451" width="3.35089" height="4.83288" fill="#9AF0F4"/>
<rect x="77.3069" y="14.6451" width="3.35089" height="4.83288" fill="#9AF0F4"/>
</g>
<defs>
<filter id="filter0_d_1880_3147" x="0.614136" y="0" width="254.751" height="102.992" filterUnits="userSpaceOnUse" color-interpolation-filters="sRGB">
<feFlood flood-opacity="0" result="BackgroundImageFix"/>
<feColorMatrix in="SourceAlpha" type="matrix" values="0 0 0 0 0 0 0 0 0 0 0 0 0 0 0 0 0 0 127 0" result="hardAlpha"/>
<feOffset/>
<feGaussianBlur stdDeviation="4"/>
<feColorMatrix type="matrix" values="0 0 0 0 0.603922 0 0 0 0 0.941176 0 0 0 0 0.956863 0 0 0 0.7 0"/>
<feBlend mode="normal" in2="BackgroundImageFix" result="effect1_dropShadow_1880_3147"/>
<feBlend mode="normal" in="SourceGraphic" in2="effect1_dropShadow_1880_3147" result="shape"/>
</filter>
</defs>
</svg>
