<svg width="517" height="73" viewBox="0 0 517 73" fill="none" xmlns="http://www.w3.org/2000/svg">
<path d="M515.375 71.6931V62.3465H413.563V71.6931H515.375Z" fill="#3FBACF"/>
<path d="M516.375 53H182.875L136.375 1.5H0.875M515.375 62.3465V71.6931H413.563V62.3465H515.375Z" stroke="#3FBACF" stroke-width="2"/>
<rect x="0.25" y="-0.25" width="5.17327" height="9.84653" transform="matrix(-1 0 0 1 406.875 62)" fill="#3FBACF" stroke="#3FBACF" stroke-width="0.5"/>
<rect x="0.25" y="-0.25" width="5.17327" height="9.84653" transform="matrix(-1 0 0 1 397.529 62)" fill="#3FBACF" stroke="#3FBACF" stroke-width="0.5"/>
<rect x="0.25" y="-0.25" width="4.00495" height="9.84653" transform="matrix(-1 0 0 1 388.183 62)" fill="#3FBACF" stroke="#3FBACF" stroke-width="0.5"/>
<rect x="0.25" y="-0.25" width="2.83663" height="9.84653" transform="matrix(-1 0 0 1 380.004 62)" fill="#3FBACF" stroke="#3FBACF" stroke-width="0.5"/>
<rect x="0.25" y="-0.25" width="2.83663" height="9.84653" transform="matrix(-1 0 0 1 372.994 62)" fill="#3FBACF" stroke="#3FBACF" stroke-width="0.5"/>
<rect x="0.25" y="-0.25" width="2.83663" height="9.84653" transform="matrix(-1 0 0 1 365.984 62)" fill="#3FBACF" stroke="#3FBACF" stroke-width="0.5"/>
<rect x="0.25" y="-0.25" width="2.83663" height="9.84653" transform="matrix(-1 0 0 1 358.975 62)" fill="#3FBACF" stroke="#3FBACF" stroke-width="0.5"/>
<rect x="0.25" y="-0.25" width="1.66832" height="9.84653" transform="matrix(-1 0 0 1 351.965 62)" fill="#3FBACF" stroke="#3FBACF" stroke-width="0.5"/>
<rect x="0.25" y="-0.25" width="1.66832" height="9.84653" transform="matrix(-1 0 0 1 346.123 62)" fill="#3FBACF" stroke="#3FBACF" stroke-width="0.5"/>
<rect x="0.25" y="-0.25" width="1.66832" height="9.84653" transform="matrix(-1 0 0 1 340.281 62)" fill="#3FBACF" stroke="#3FBACF" stroke-width="0.5"/>
</svg>
