<svg width="498" height="21" viewBox="0 0 498 21" fill="none" xmlns="http://www.w3.org/2000/svg">
<path d="M496.375 19.6931V10.3465H394.563V19.6931H496.375Z" fill="#3FBACF"/>
<path d="M497.375 1H181.875H84.875H0.375M496.375 10.3465V19.6931H394.563V10.3465H496.375Z" stroke="#3FBACF" stroke-width="2"/>
<rect x="0.25" y="-0.25" width="5.17327" height="9.84653" transform="matrix(-1 0 0 1 388.053 10.3464)" fill="#3FBACF" stroke="#3FBACF" stroke-width="0.5"/>
<rect x="0.25" y="-0.25" width="5.17327" height="9.84653" transform="matrix(-1 0 0 1 378.707 10.3464)" fill="#3FBACF" stroke="#3FBACF" stroke-width="0.5"/>
<rect x="0.25" y="-0.25" width="4.00495" height="9.84653" transform="matrix(-1 0 0 1 369.36 10.3464)" fill="#3FBACF" stroke="#3FBACF" stroke-width="0.5"/>
<rect x="0.25" y="-0.25" width="2.83663" height="9.84653" transform="matrix(-1 0 0 1 361.182 10.3464)" fill="#3FBACF" stroke="#3FBACF" stroke-width="0.5"/>
<rect x="0.25" y="-0.25" width="2.83663" height="9.84653" transform="matrix(-1 0 0 1 354.172 10.3464)" fill="#3FBACF" stroke="#3FBACF" stroke-width="0.5"/>
<rect x="0.25" y="-0.25" width="2.83663" height="9.84653" transform="matrix(-1 0 0 1 347.162 10.3464)" fill="#3FBACF" stroke="#3FBACF" stroke-width="0.5"/>
<rect x="0.25" y="-0.25" width="2.83663" height="9.84653" transform="matrix(-1 0 0 1 340.152 10.3464)" fill="#3FBACF" stroke="#3FBACF" stroke-width="0.5"/>
<rect x="0.25" y="-0.25" width="1.66832" height="9.84653" transform="matrix(-1 0 0 1 333.142 10.3464)" fill="#3FBACF" stroke="#3FBACF" stroke-width="0.5"/>
<rect x="0.25" y="-0.25" width="1.66832" height="9.84653" transform="matrix(-1 0 0 1 327.301 10.3464)" fill="#3FBACF" stroke="#3FBACF" stroke-width="0.5"/>
<rect x="0.25" y="-0.25" width="1.66832" height="9.84653" transform="matrix(-1 0 0 1 321.459 10.3464)" fill="#3FBACF" stroke="#3FBACF" stroke-width="0.5"/>
</svg>
