<svg width="18" height="14" viewBox="0 0 18 14" fill="none" xmlns="http://www.w3.org/2000/svg">
<path d="M8.84489 7.875L1.91468 3.5V12.25H17.5076C17.5076 13.2165 16.7241 14 15.7576 14H1.91468C1.43823 14 1.0305 13.8288 0.691499 13.4864C0.351919 13.1434 0.182129 12.7312 0.182129 12.25V1.75C0.182129 1.26875 0.351919 0.856625 0.691499 0.513625C1.0305 0.171208 1.43823 0 1.91468 0H15.7751C16.2515 0 16.6596 0.171208 16.9991 0.513625C17.3381 0.856625 17.5076 1.26875 17.5076 1.75V12.25H15.7751V3.5L8.84489 7.875ZM8.84489 6.125L15.7751 1.75H1.91468L8.84489 6.125ZM1.91468 3.5V1.75V12.25V7V3.5Z" fill="#FEFFFF"/>
</svg>
