<svg width="15" height="14" viewBox="0 0 15 14" fill="none" xmlns="http://www.w3.org/2000/svg">
<path d="M13.8676 14C12.1086 14 10.394 13.6272 8.72393 12.8816C7.05327 12.1364 5.57378 11.1513 4.28547 9.926C2.99661 8.70126 1.96029 7.29478 1.1765 5.70656C0.392166 4.11885 0 2.48889 0 0.816667C0 0.583333 0.0818149 0.388889 0.245445 0.233333C0.409075 0.0777778 0.613612 0 0.859057 0H4.17256C4.36346 0 4.53391 0.0583333 4.68391 0.175C4.8339 0.291667 4.92253 0.440741 4.9498 0.622222L5.4816 3.34444C5.50887 3.52593 5.5056 3.69107 5.47178 3.83989C5.43742 3.98922 5.35888 4.12222 5.23616 4.23889L3.2726 6.14444C3.8453 7.07778 4.56118 7.95278 5.42024 8.76944C6.2793 9.58611 7.22699 10.2926 8.26331 10.8889L10.186 9.06111C10.3087 8.94444 10.469 8.85682 10.667 8.79822C10.8645 8.74015 11.0587 8.72407 11.2496 8.75L14.0722 9.29445C14.2631 9.33333 14.4199 9.4207 14.5426 9.55656C14.6653 9.69293 14.7267 9.85185 14.7267 10.0333V13.1833C14.7267 13.4167 14.6449 13.6111 14.4812 13.7667C14.3176 13.9222 14.1131 14 13.8676 14Z" fill="#FEFFFF"/>
</svg>
