<svg width="20" height="20" viewBox="0 0 20 20" fill="none" xmlns="http://www.w3.org/2000/svg">
<g clip-path="url(#clip0_3309_9523)">
<path d="M17.5389 5.69297H11.9779V4.08423H17.5389V5.69297ZM18.9101 13.7367C18.5589 14.7799 17.2982 16.1498 14.8577 16.1498C12.4156 16.1498 10.4375 14.759 10.4375 11.585C10.4375 8.43989 12.2845 6.8231 14.7798 6.8231C17.2283 6.8231 18.7234 8.25649 19.0499 10.3832C19.1118 10.7903 19.1365 11.3388 19.1253 12.1046H12.7485C12.8518 14.6874 15.5155 14.7687 16.3933 13.7367H18.9101ZM12.8041 10.5192H16.7484C16.665 9.27482 15.846 8.73429 14.7806 8.73429C13.616 8.73429 12.9717 9.35204 12.8041 10.5192ZM5.19828 16.1401H0.0615234V4.10112H5.58516C9.93543 4.16627 10.0181 8.4801 7.746 9.65609C10.4955 10.6696 10.5877 16.1401 5.19828 16.1401ZM2.4448 8.91044H5.29202C7.28444 8.91044 7.60062 6.49734 5.04416 6.49734H2.4448V8.91044ZM5.13869 11.3235H2.4448V13.7495H5.09897C7.52594 13.7495 7.37738 11.3235 5.13869 11.3235Z" fill="#9AF0F4"/>
</g>
<defs>
<clipPath id="clip0_3309_9523">
<rect width="19.0662" height="19.3049" fill="white" transform="translate(0.0615234 0.0625)"/>
</clipPath>
</defs>
</svg>
