<svg width="21" height="19" viewBox="0 0 21 19" fill="none" xmlns="http://www.w3.org/2000/svg">
<path d="M10.5349 0C5.20156 0 0.881836 4.31972 0.881836 9.65302C0.881836 13.9245 3.64501 17.5323 7.48208 18.8113C7.96474 18.8958 8.14573 18.6062 8.14573 18.3528C8.14573 18.1235 8.13366 17.3634 8.13366 16.5549C5.70834 17.0014 5.0809 15.9637 4.88784 15.4207C4.77924 15.1432 4.30866 14.2865 3.8984 14.0572C3.56055 13.8762 3.0779 13.4298 3.88634 13.4177C4.64651 13.4056 5.18949 14.1175 5.37049 14.4071C6.23926 15.8671 7.62688 15.4569 8.18193 15.2035C8.26639 14.5761 8.51978 14.1537 8.79731 13.9124C6.64951 13.6711 4.40519 12.8385 4.40519 9.14623C4.40519 8.09647 4.77924 7.22769 5.39462 6.55198C5.29809 6.31066 4.96023 5.32122 5.49115 3.99393C5.49115 3.99393 6.29959 3.74054 8.14573 4.98337C8.91797 4.76618 9.73848 4.65758 10.559 4.65758C11.3795 4.65758 12.2 4.76618 12.9722 4.98337C14.8184 3.72848 15.6268 3.99393 15.6268 3.99393C16.1577 5.32122 15.8199 6.31066 15.7233 6.55198C16.3387 7.22769 16.7128 8.0844 16.7128 9.14623C16.7128 12.8506 14.4564 13.6711 12.3086 13.9124C12.6585 14.2141 12.9602 14.7932 12.9602 15.6982C12.9602 16.9893 12.9481 18.027 12.9481 18.3528C12.9481 18.6062 13.1291 18.9078 13.6117 18.8113C15.5281 18.1645 17.1934 16.933 18.3731 15.2901C19.5528 13.6472 20.1875 11.6756 20.1879 9.65302C20.1879 4.31972 15.8681 0 10.5349 0Z" fill="#9AF0F4"/>
</svg>
