<svg width="20" height="20" viewBox="0 0 20 20" fill="none" xmlns="http://www.w3.org/2000/svg">
<path d="M5.59922 0H13.7084C16.7977 0 19.3077 2.51 19.3077 5.59922V13.7084C19.3077 15.1934 18.7177 16.6176 17.6677 17.6677C16.6176 18.7177 15.1934 19.3077 13.7084 19.3077H5.59922C2.50999 19.3077 0 16.7977 0 13.7084V5.59922C0 4.11421 0.589916 2.69003 1.63997 1.63997C2.69003 0.589916 4.11421 0 5.59922 0ZM5.40614 1.93077C4.48442 1.93077 3.60044 2.29692 2.94868 2.94868C2.29692 3.60044 1.93077 4.48442 1.93077 5.40614V13.9015C1.93077 15.8226 3.48503 17.3769 5.40614 17.3769H13.9015C14.8232 17.3769 15.7072 17.0107 16.359 16.359C17.0107 15.7072 17.3769 14.8232 17.3769 13.9015V5.40614C17.3769 3.48503 15.8226 1.93077 13.9015 1.93077H5.40614ZM14.7221 3.37884C15.0421 3.37884 15.3491 3.50598 15.5754 3.73228C15.8017 3.95859 15.9288 4.26552 15.9288 4.58557C15.9288 4.90561 15.8017 5.21255 15.5754 5.43885C15.3491 5.66516 15.0421 5.7923 14.7221 5.7923C14.402 5.7923 14.0951 5.66516 13.8688 5.43885C13.6425 5.21255 13.5154 4.90561 13.5154 4.58557C13.5154 4.26552 13.6425 3.95859 13.8688 3.73228C14.0951 3.50598 14.402 3.37884 14.7221 3.37884ZM9.65383 4.82691C10.934 4.82691 12.1617 5.33546 13.067 6.24068C13.9722 7.14591 14.4807 8.37365 14.4807 9.65383C14.4807 10.934 13.9722 12.1617 13.067 13.067C12.1617 13.9722 10.934 14.4807 9.65383 14.4807C8.37365 14.4807 7.1459 13.9722 6.24068 13.067C5.33546 12.1617 4.82691 10.934 4.82691 9.65383C4.82691 8.37365 5.33546 7.14591 6.24068 6.24068C7.1459 5.33546 8.37365 4.82691 9.65383 4.82691ZM9.65383 6.75768C8.88572 6.75768 8.14907 7.06281 7.60594 7.60594C7.06281 8.14907 6.75768 8.88572 6.75768 9.65383C6.75768 10.4219 7.06281 11.1586 7.60594 11.7017C8.14907 12.2448 8.88572 12.55 9.65383 12.55C10.4219 12.55 11.1586 12.2448 11.7017 11.7017C12.2448 11.1586 12.55 10.4219 12.55 9.65383C12.55 8.88572 12.2448 8.14907 11.7017 7.60594C11.1586 7.06281 10.4219 6.75768 9.65383 6.75768Z" fill="#9AF0F4"/>
</svg>
