<svg width="21" height="20" viewBox="0 0 21 20" fill="none" xmlns="http://www.w3.org/2000/svg">
<g clip-path="url(#clip0_3430_29874)">
<path d="M16.0498 -0.000244141H4.78561C2.56416 -0.000244141 0.762695 1.80122 0.762695 4.02267V15.2868C0.762695 17.5083 2.56416 19.3098 4.78561 19.3098H16.0498C18.272 19.3098 20.0727 17.5083 20.0727 15.2868V4.02267C20.0727 1.80122 18.272 -0.000244141 16.0498 -0.000244141ZM7.19936 15.2868H4.78561V6.43642H7.19936V15.2868ZM5.99249 5.41621C5.21526 5.41621 4.58447 4.78059 4.58447 3.99693C4.58447 3.21326 5.21526 2.57764 5.99249 2.57764C6.76971 2.57764 7.40051 3.21326 7.40051 3.99693C7.40051 4.78059 6.77052 5.41621 5.99249 5.41621ZM16.8544 15.2868H14.4406V10.778C14.4406 8.06812 11.2223 8.27329 11.2223 10.778V15.2868H8.80853V6.43642H11.2223V7.85651C12.3455 5.77586 16.8544 5.62218 16.8544 9.84866V15.2868Z" fill="#9AF0F4"/>
</g>
<defs>
<clipPath id="clip0_3430_29874">
<rect width="19.31" height="19.31" fill="white" transform="translate(0.762695)"/>
</clipPath>
</defs>
</svg>
