<svg width="236" height="315" viewBox="0 0 236 315" fill="none" xmlns="http://www.w3.org/2000/svg">
<path d="M172.258 21.1201L63.3016 21.0403L32.1463 8.05986H11.4995V5.39993L32.8123 5.47973L63.9922 18.4602H171.79L203.389 5.39993H224.258V8.05986H203.636L172.258 21.1201Z" fill="url(#paint0_linear_1880_3124)"/>
<path d="M172.26 29.1002L63.3026 29.0204L32.1473 16.04H17.8401V13.38L32.838 13.4598L63.9933 26.4403H171.791L203.39 13.38H217.944V16.04H203.637L172.26 29.1002Z" fill="url(#paint1_linear_1880_3124)"/>
<path d="M224.256 309.562L202.944 309.456L171.788 296.475H63.9908L32.3669 309.562H11.498V306.902H32.1449L63.7441 293.815H172.257L203.634 306.902H224.256V309.562Z" fill="url(#paint2_linear_1880_3124)"/>
<path d="M11.498 308.287H32.3669L63.7441 295.227H172.01L203.388 308.287H224.281V6.81058H203.388L172.01 19.8708H63.7441L32.3669 6.81058H11.498V308.287Z" fill="url(#paint3_linear_1880_3124)"/>
<path d="M217.942 301.587L202.944 301.507L171.789 288.526H63.9911L32.3918 301.587H17.8379V298.927H32.1451L63.7444 285.866H172.233C172.43 285.946 203.388 298.847 203.61 298.927H217.917V301.587H217.942Z" fill="url(#paint4_linear_1880_3124)"/>
<path d="M229.415 13.3266C221.546 13.433 221.546 0.133314 229.415 0.266311C237.284 0.159913 237.284 13.4596 229.415 13.3266ZM229.415 2.26126C223.963 2.18146 223.963 11.4114 229.415 11.3316C234.866 11.4114 234.866 2.18146 229.415 2.26126Z" fill="url(#paint5_linear_1880_3124)"/>
<path d="M229.415 314.75C221.546 314.856 221.546 301.556 229.415 301.689C237.284 301.583 237.284 314.883 229.415 314.75ZM229.415 303.684C223.964 303.604 223.964 312.834 229.415 312.755C234.867 312.834 234.867 303.604 229.415 303.684Z" fill="url(#paint6_linear_1880_3124)"/>
<path d="M6.11829 13.3262C-1.75069 13.4592 -1.75069 0.159558 6.11829 0.265955C13.9873 0.159558 13.9873 13.4592 6.11829 13.3262ZM6.11829 2.2609C0.666737 2.18111 0.666737 11.4111 6.11829 11.3313C11.5698 11.4111 11.5698 2.18111 6.11829 2.2609Z" fill="url(#paint7_linear_1880_3124)"/>
<path d="M6.11829 314.75C-1.75069 314.856 -1.75069 301.556 6.11829 301.689C13.9873 301.583 13.9873 314.883 6.11829 314.75ZM6.11829 303.684C0.666737 303.604 0.666737 312.834 6.11829 312.755C11.5698 312.834 11.5698 303.604 6.11829 303.684Z" fill="url(#paint8_linear_1880_3124)"/>
<path opacity="0.4" d="M11.498 308.287H32.3669L63.7441 295.227H172.01L203.388 308.287H224.281V6.81058H203.388L172.01 19.8708H63.7441L32.3669 6.81058H11.498V308.287Z" fill="black"/>
<defs>
<linearGradient id="paint0_linear_1880_3124" x1="11.4995" y1="13.2733" x2="224.258" y2="13.2733" gradientUnits="userSpaceOnUse">
<stop stop-color="#83D9DB"/>
<stop offset="1" stop-color="#00F2FE"/>
</linearGradient>
<linearGradient id="paint1_linear_1880_3124" x1="17.8401" y1="21.2534" x2="217.944" y2="21.2534" gradientUnits="userSpaceOnUse">
<stop stop-color="#00F2FE"/>
<stop offset="0.08" stop-color="#01C1D3" stop-opacity="0.77"/>
<stop offset="0.16" stop-color="#0290A8" stop-opacity="0.54"/>
<stop offset="0.24" stop-color="#036784" stop-opacity="0.35"/>
<stop offset="0.32" stop-color="#044869" stop-opacity="0.2"/>
<stop offset="0.39" stop-color="#043155" stop-opacity="0.09"/>
<stop offset="0.45" stop-color="#042349" stop-opacity="0.02"/>
<stop offset="0.5" stop-color="#051F45" stop-opacity="0"/>
<stop offset="0.55" stop-color="#04254A" stop-opacity="0.03"/>
<stop offset="0.62" stop-color="#043659" stop-opacity="0.11"/>
<stop offset="0.7" stop-color="#035271" stop-opacity="0.24"/>
<stop offset="0.8" stop-color="#027994" stop-opacity="0.43"/>
<stop offset="0.9" stop-color="#01ABBF" stop-opacity="0.66"/>
<stop offset="1" stop-color="#00E3F0" stop-opacity="0.93"/>
</linearGradient>
<linearGradient id="paint2_linear_1880_3124" x1="224.256" y1="301.689" x2="11.498" y2="301.689" gradientUnits="userSpaceOnUse">
<stop stop-color="#83D9DB"/>
<stop offset="1" stop-color="#00F2FE"/>
</linearGradient>
<linearGradient id="paint3_linear_1880_3124" x1="117.89" y1="-70.0083" x2="117.89" y2="374.999" gradientUnits="userSpaceOnUse">
<stop stop-color="#00F2FE"/>
<stop offset="0.08" stop-color="#01C1D3" stop-opacity="0.77"/>
<stop offset="0.16" stop-color="#0290A8" stop-opacity="0.54"/>
<stop offset="0.24" stop-color="#036784" stop-opacity="0.35"/>
<stop offset="0.32" stop-color="#044869" stop-opacity="0.2"/>
<stop offset="0.39" stop-color="#043155" stop-opacity="0.09"/>
<stop offset="0.45" stop-color="#042349" stop-opacity="0.02"/>
<stop offset="0.5" stop-color="#051F45" stop-opacity="0"/>
<stop offset="0.55" stop-color="#04254A" stop-opacity="0.03"/>
<stop offset="0.62" stop-color="#043659" stop-opacity="0.11"/>
<stop offset="0.7" stop-color="#035271" stop-opacity="0.24"/>
<stop offset="0.8" stop-color="#027994" stop-opacity="0.43"/>
<stop offset="0.9" stop-color="#01ABBF" stop-opacity="0.66"/>
<stop offset="1" stop-color="#00E3F0" stop-opacity="0.93"/>
</linearGradient>
<linearGradient id="paint4_linear_1880_3124" x1="217.942" y1="293.713" x2="17.8379" y2="293.713" gradientUnits="userSpaceOnUse">
<stop stop-color="#00F2FE"/>
<stop offset="0.08" stop-color="#01C1D3" stop-opacity="0.77"/>
<stop offset="0.16" stop-color="#0290A8" stop-opacity="0.54"/>
<stop offset="0.24" stop-color="#036784" stop-opacity="0.35"/>
<stop offset="0.32" stop-color="#044869" stop-opacity="0.2"/>
<stop offset="0.39" stop-color="#043155" stop-opacity="0.09"/>
<stop offset="0.45" stop-color="#042349" stop-opacity="0.02"/>
<stop offset="0.5" stop-color="#051F45" stop-opacity="0"/>
<stop offset="0.55" stop-color="#04254A" stop-opacity="0.03"/>
<stop offset="0.62" stop-color="#043659" stop-opacity="0.11"/>
<stop offset="0.7" stop-color="#035271" stop-opacity="0.24"/>
<stop offset="0.8" stop-color="#027994" stop-opacity="0.43"/>
<stop offset="0.9" stop-color="#01ABBF" stop-opacity="0.66"/>
<stop offset="1" stop-color="#00E3F0" stop-opacity="0.93"/>
</linearGradient>
<linearGradient id="paint5_linear_1880_3124" x1="223.519" y1="6.80974" x2="235.31" y2="6.80974" gradientUnits="userSpaceOnUse">
<stop stop-color="#85DDDF"/>
<stop offset="1" stop-color="#00F2FE"/>
</linearGradient>
<linearGradient id="paint6_linear_1880_3124" x1="223.52" y1="308.233" x2="235.311" y2="308.233" gradientUnits="userSpaceOnUse">
<stop stop-color="#85DDDF"/>
<stop offset="1" stop-color="#00F2FE"/>
</linearGradient>
<linearGradient id="paint7_linear_1880_3124" x1="0.22272" y1="6.80939" x2="12.0139" y2="6.80939" gradientUnits="userSpaceOnUse">
<stop stop-color="#87E0E2"/>
<stop offset="1" stop-color="#00F2FE"/>
</linearGradient>
<linearGradient id="paint8_linear_1880_3124" x1="0.22272" y1="308.233" x2="12.0139" y2="308.233" gradientUnits="userSpaceOnUse">
<stop stop-color="#85DDDF"/>
<stop offset="1" stop-color="#00F2FE"/>
</linearGradient>
</defs>
</svg>
