<svg width="45" height="39" viewBox="0 0 45 39" fill="none" xmlns="http://www.w3.org/2000/svg">
<g id="Group 480962007">
<path id="Vector" d="M15.3253 12.8735C19.5854 12.8683 23.8467 12.8605 28.1067 12.8605C28.2277 12.8605 28.3473 12.9191 28.4682 12.9516V18.3208C28.1353 18.3208 27.9026 18.3208 27.6698 18.3208C23.7089 18.3208 19.7479 18.3182 15.787 18.326C15.5399 18.326 15.2928 18.4118 15.0458 18.4573C14.9612 18.2558 14.8078 18.0568 14.8052 17.854C14.7844 16.3832 14.7935 14.9112 14.7935 13.4405C14.7935 13.1492 14.7766 12.8475 15.2096 12.8787C15.2486 12.8787 15.2863 12.8761 15.3253 12.8748V12.8735Z" fill="#9AF0F4"/>
<path id="Vector_2" d="M30.3069 18.3327C30.2536 18.1779 30.1548 18.0232 30.1535 17.8671C30.1405 16.3717 30.147 14.8763 30.1431 13.3808C30.1431 13.0934 30.1756 12.8477 30.554 12.8763C30.593 12.8763 30.6307 12.8737 30.6697 12.8724C34.9297 12.8672 39.1898 12.8607 43.4498 12.8594C43.5707 12.8594 43.6904 12.9179 43.8113 12.9504C43.8074 14.3587 43.8139 15.767 43.7944 17.174C43.7892 17.5485 43.706 17.9217 43.6527 18.3314H30.3056L30.3069 18.3327Z" fill="#9AF0F4"/>
<path id="Vector_3" d="M23.2695 31.4895C23.1888 31.3439 23.0393 31.1995 23.038 31.0526C23.0211 29.4141 23.0276 27.7756 23.0276 26.0916C23.237 26.0461 23.3969 25.9811 23.5581 25.9811C27.9651 25.9837 32.3721 25.9915 36.7791 25.9993C36.7869 26.0513 36.7934 26.1033 36.8012 26.1567C36.7583 27.8549 36.7166 29.5545 36.6724 31.3217C36.3421 31.3217 36.1081 31.3217 35.8753 31.3217C31.9547 31.3217 28.034 31.3191 24.1134 31.327C23.865 31.327 23.6167 31.4063 23.3696 31.4492C23.3345 31.457 23.302 31.47 23.2721 31.4895H23.2695Z" fill="#9AF0F4"/>
<path id="Vector_4" d="M30.2628 24.8565C30.2251 24.7563 30.1549 24.6562 30.1549 24.5561C30.151 22.954 30.1549 21.3519 30.1614 19.7486C30.1614 19.6888 30.2043 19.6303 30.2537 19.5015C30.4592 19.4885 30.688 19.4625 30.9169 19.4625C35.0313 19.4599 39.1457 19.4599 43.2614 19.4664C43.4902 19.4664 43.7191 19.534 43.948 19.5691C43.8998 19.7954 43.8127 20.0204 43.8101 20.2466C43.7958 21.4586 43.8101 22.6718 43.7971 23.8838C43.7945 24.1491 43.7217 24.4143 43.6619 24.8057H30.6802C30.5983 24.8083 30.5164 24.8109 30.4345 24.8122L30.398 24.8435C30.3525 24.8474 30.3083 24.8513 30.2628 24.8552V24.8565Z" fill="#9AF0F4"/>
<path id="Vector_5" d="M14.8208 24.698V19.5485C15.0315 19.5147 15.1953 19.4653 15.3592 19.4653C19.6634 19.4614 23.9689 19.464 28.2732 19.4653C28.3811 19.4653 28.489 19.4822 28.597 19.4913C28.5905 19.529 28.5879 19.5667 28.5866 19.6057C28.545 19.832 28.4708 20.0595 28.4682 20.2858C28.4565 21.6057 28.4643 22.9256 28.4617 24.2454C28.4617 24.408 28.4357 24.5692 28.4279 24.6629C27.4838 24.7162 26.6035 24.8059 25.7218 24.8098C22.2602 24.8228 18.7986 24.8085 15.337 24.8033C15.2447 24.815 15.1511 24.8254 15.0588 24.8371C14.9807 24.7903 14.9014 24.7448 14.8234 24.698H14.8208Z" fill="#9AF0F4"/>
<path id="Vector_6" d="M7.79613 31.3324L7.78833 26.1166C7.87285 26.0763 7.95738 26.0347 8.0419 25.9944C12.5425 25.9996 17.0431 26.0061 21.5437 26.0113C21.5398 26.0503 21.5515 26.0841 21.5814 26.1101C21.5684 26.1465 21.5593 26.1842 21.5528 26.2233C21.1887 26.1803 21.3252 26.4599 21.3239 26.6121C21.3148 27.9319 21.32 29.2518 21.3161 30.5717C21.3161 30.8006 21.2966 31.0307 21.2836 31.3233C20.9858 31.3233 20.7531 31.3233 20.5203 31.3233C16.6036 31.3233 12.6881 31.3207 8.77141 31.3285C8.52174 31.3285 8.27207 31.4013 8.0224 31.4404C7.94698 31.4052 7.87155 31.3701 7.79613 31.335V31.3324Z" fill="#9AF0F4"/>
<path id="Vector_7" d="M23.2536 37.9866C23.1769 37.7915 23.0351 37.5964 23.0325 37.4001C23.0169 35.8643 23.026 34.3273 23.0325 32.7916C23.0325 32.7304 23.0664 32.6693 23.1054 32.538C23.2887 32.5172 23.4955 32.4743 23.7009 32.4743C27.8985 32.4704 32.0962 32.4704 36.2938 32.4743C36.4589 32.4743 36.6254 32.5315 36.7905 32.5614C36.7905 34.3169 36.7905 36.0724 36.7905 37.8279H36.7918C36.5798 37.7876 36.3666 37.7486 36.1546 37.7096C32.2171 37.7057 28.2796 37.6992 24.3407 37.7005C24.199 37.7005 24.0585 37.7681 23.9168 37.8045C23.831 37.8045 23.7451 37.8045 23.6593 37.8032C23.6138 37.8058 23.5696 37.8071 23.5241 37.8097L23.4162 37.941L23.3875 37.9658C23.342 37.9723 23.2978 37.9788 23.2523 37.9853L23.2536 37.9866Z" fill="#9AF0F4"/>
<path id="Vector_8" d="M12.9444 25.0737C12.7091 25.0906 12.475 25.1205 12.2396 25.1205C8.3788 25.127 4.51669 25.1296 0.655875 25.1335C0.514134 25.1231 0.373694 25.1127 0.231953 25.1023C0.155231 24.9814 0.0121893 24.8605 0.010889 24.7382C-0.00341517 23.0152 0.000485953 21.2922 0.000485953 19.5341C0.190341 19.5042 0.333382 19.4626 0.477724 19.4626C4.60641 19.46 8.7338 19.4626 12.8625 19.4639C12.9912 19.4639 13.1213 19.4834 13.25 19.4925C13.2448 19.5302 13.2409 19.5666 13.2383 19.6043C13.1967 19.8319 13.1213 20.0582 13.12 20.2857C13.1083 21.5406 13.1161 22.7968 13.1122 24.0516C13.1122 24.2571 13.0888 24.4612 13.0693 24.772H0.368492C0.368492 24.8344 0.368492 24.8982 0.368492 24.9606C0.571351 24.9606 0.772909 24.9606 0.975767 24.9606C4.74295 24.9606 8.50884 24.9593 12.276 24.9658C12.4984 24.9658 12.7221 25.0347 12.9444 25.0724V25.0737Z" fill="#9AF0F4"/>
<path id="Vector_9" d="M38.5398 37.9406V32.6299H44.0365C44.0573 32.8224 44.0898 32.9901 44.0898 33.1566C44.0937 34.6481 44.095 36.1396 44.0898 37.6299C44.0898 37.7989 44.0391 37.968 44.0105 38.137C42.2628 38.1305 40.5151 38.124 38.7674 38.1175C38.6919 38.0577 38.6152 37.9992 38.5398 37.9393V37.9406Z" fill="white"/>
<path id="Vector_10" d="M6.28255 26.2896V31.6094H0.766357V26.101C2.56218 26.0802 4.34629 26.0594 6.1304 26.0399C6.18112 26.1231 6.23183 26.2064 6.28385 26.2896H6.28255Z" fill="white"/>
<path id="Vector_11" d="M44.0401 6.57443V12.0646H38.6475V6.57443H44.0401Z" fill="white"/>
<path id="Vector_12" d="M38.7439 0H44.0351V5.57731H38.6086V0.117034C38.6542 0.0780225 38.6984 0.0390112 38.7439 0Z" fill="white"/>
<path id="Vector_13" d="M7.80648 18.4481C7.82208 16.8473 7.83899 15.2465 7.85459 13.6471C7.85589 13.5001 7.85459 13.3519 7.85459 13.1555C8.04965 13.1269 8.21219 13.084 8.37344 13.0827C9.84546 13.0775 11.3175 13.0853 12.7895 13.0762C13.151 13.0736 13.376 13.1686 13.3747 13.5756C13.3682 15.1347 13.3695 16.6926 13.363 18.2517C13.363 18.3323 13.3175 18.413 13.2602 18.6028H7.91311C7.8767 18.5508 7.84159 18.4988 7.80518 18.4468L7.80648 18.4481Z" fill="white"/>
<path id="Vector_14" d="M38.6294 31.4494V26.1426H44.0351V31.6627H38.8882C38.8023 31.5911 38.7152 31.5209 38.6294 31.4494Z" fill="white"/>
</g>
</svg>
